<svg xmlns="http://www.w3.org/2000/svg" viewBox="79.8 361 1343.7 648" role="img" aria-label="360labs"><defs><g/><clipPath id="28f451c725"><rect x="0" width="1251" y="0" height="782"/></clipPath><clipPath id="111f62a147"><path d="M 1010.574219 856.769531 L 1460.574219 856.769531 L 1460.574219 1306.769531 L 1010.574219 1306.769531 Z M 1010.574219 856.769531 " clip-rule="nonzero"/></clipPath><clipPath id="d128ee98ab"><path d="M 0.574219 0.769531 L 450.574219 0.769531 L 450.574219 450.769531 L 0.574219 450.769531 Z M 0.574219 0.769531 " clip-rule="nonzero"/></clipPath><clipPath id="dcdeab49a6"><rect x="0" width="451" y="0" height="451"/></clipPath><clipPath id="b9bca3689c"><rect x="0" width="314" y="0" height="107"/></clipPath></defs><clipPath id="tile"><rect x="79.8" y="361" width="1343.7" height="648" rx="84"/></clipPath><g clip-path="url(#tile)"><rect x="79.8" y="361" width="1343.7" height="648" fill="#15151f"/><g transform="matrix(1, 0, 0, 1, 118, 359)"><g clip-path="url(#28f451c725)"><g fill="#fffefa" fill-opacity="1"><g transform="translate(2.814295, 590.013069)"><g><path d="M 39.953125 -518 L 39.953125 -517.3125 L 39.265625 -517.3125 C 39.722656 -517.769531 40.410156 -518 41.328125 -518 C 41.785156 -518 42.242188 -517.769531 42.703125 -517.3125 L 45.46875 -517.3125 C 46.382812 -516.851562 47.070312 -516.394531 47.53125 -515.9375 C 48.445312 -515.007812 49.363281 -514.316406 50.28125 -513.859375 L 51.65625 -511.109375 C 52.113281 -510.191406 52.34375 -509.503906 52.34375 -509.046875 C 52.8125 -508.585938 53.046875 -507.898438 53.046875 -506.984375 L 53.046875 -505.59375 C 52.578125 -398.601562 52.34375 -238.335938 52.34375 -24.796875 C 69.34375 -24.335938 94.832031 -24.109375 128.8125 -24.109375 L 131.5625 -24.109375 C 132.476562 -24.109375 133.398438 -23.878906 134.328125 -23.421875 L 137.078125 -22.046875 L 139.140625 -19.96875 L 140.515625 -17.21875 C 140.972656 -16.300781 141.203125 -15.382812 141.203125 -14.46875 C 141.671875 -14.007812 141.90625 -13.320312 141.90625 -12.40625 L 141.90625 -11.703125 C 141.4375 -10.785156 141.203125 -9.867188 141.203125 -8.953125 L 139.828125 -6.203125 C 139.367188 -5.285156 138.679688 -4.597656 137.765625 -4.140625 C 137.304688 -3.210938 136.617188 -2.75 135.703125 -2.75 L 132.9375 -1.375 C 132.476562 -0.914062 132.019531 -0.6875 131.5625 -0.6875 L 45.46875 -0.6875 C 44.539062 -0.6875 43.617188 -0.457031 42.703125 0 L 39.953125 0 C 39.035156 0 38.117188 -0.226562 37.203125 -0.6875 L 34.4375 -2.0625 C 33.519531 -2.519531 32.832031 -3.210938 32.375 -4.140625 L 30.3125 -6.203125 C 30.3125 -6.660156 30.082031 -7.117188 29.625 -7.578125 C 29.164062 -8.035156 29.164062 -8.492188 29.625 -8.953125 L 30.3125 -8.265625 C 30.769531 -7.804688 31.226562 -7.578125 31.6875 -7.578125 C 30.769531 -8.035156 30.3125 -8.492188 30.3125 -8.953125 L 28.9375 -8.953125 L 28.9375 -8.265625 C 29.394531 -7.804688 29.625 -7.347656 29.625 -6.890625 L 29.625 -8.953125 C 29.164062 -8.953125 28.9375 -9.179688 28.9375 -9.640625 C 28.9375 -10.097656 29.164062 -10.097656 29.625 -9.640625 L 29.625 -7.578125 C 29.625 -8.492188 29.394531 -9.179688 28.9375 -9.640625 L 28.9375 -10.328125 C 29.394531 -10.785156 29.625 -10.554688 29.625 -9.640625 C 29.625 -9.179688 29.851562 -8.722656 30.3125 -8.265625 L 28.9375 -11.015625 L 28.9375 -16.53125 C 29.394531 -125.820312 29.625 -289.535156 29.625 -507.671875 C 30.082031 -508.585938 30.3125 -509.503906 30.3125 -510.421875 L 31.6875 -513.171875 L 33.75 -515.25 L 36.515625 -516.625 C 36.972656 -517.082031 37.660156 -517.3125 38.578125 -517.3125 C 39.492188 -517.769531 39.722656 -518 39.265625 -518 C 38.804688 -517.539062 38.578125 -517.3125 38.578125 -517.3125 C 38.578125 -517.3125 38.804688 -517.539062 39.265625 -518 Z M 39.953125 -518 "/></g></g></g><g fill="#fffefa" fill-opacity="1"><g transform="translate(160.259064, 590.013069)"><g><path d="M 351.296875 -334.765625 L 354.0625 -333.390625 C 354.976562 -332.929688 355.664062 -332.242188 356.125 -331.328125 C 356.582031 -330.867188 357.039062 -330.179688 357.5 -329.265625 L 358.875 -326.5 L 358.875 -161.1875 C 358.875 -127.664062 358.644531 -77.835938 358.1875 -11.703125 L 358.1875 -8.265625 C 357.726562 -7.347656 357.269531 -6.660156 356.8125 -6.203125 L 355.4375 -3.4375 C 354.519531 -2.976562 353.832031 -2.519531 353.375 -2.0625 C 352.445312 -1.144531 351.523438 -0.6875 350.609375 -0.6875 C 349.691406 -0.226562 348.773438 0 347.859375 0 L 344.40625 0 L 341.65625 -1.375 C 341.195312 -1.375 340.507812 -1.832031 339.59375 -2.75 C 338.675781 -3.207031 337.988281 -3.898438 337.53125 -4.828125 L 336.140625 -7.578125 C 335.679688 -8.492188 335.453125 -9.410156 335.453125 -10.328125 L 335.453125 -82.65625 C 321.222656 -58.320312 301.476562 -38.804688 276.21875 -24.109375 C 251.414062 -8.953125 223.863281 -1.375 193.5625 -1.375 C 177.488281 -1.375 162.101562 -3.671875 147.40625 -8.265625 C 132.707031 -12.398438 119.160156 -18.367188 106.765625 -26.171875 C 83.347656 -40.867188 64.289062 -60.617188 49.59375 -85.421875 C 35.351562 -110.210938 28.234375 -137.304688 28.234375 -166.703125 C 28.234375 -196.546875 35.351562 -223.867188 49.59375 -248.671875 C 64.289062 -273.003906 83.347656 -292.519531 106.765625 -307.21875 C 119.160156 -315.019531 132.707031 -321.21875 147.40625 -325.8125 C 162.101562 -329.945312 177.488281 -332.015625 193.5625 -332.015625 C 223.863281 -332.015625 251.644531 -324.664062 276.90625 -309.96875 C 302.164062 -294.8125 321.910156 -275.066406 336.140625 -250.734375 L 336.140625 -326.5 L 337.53125 -329.265625 C 337.988281 -330.179688 338.445312 -330.867188 338.90625 -331.328125 C 339.363281 -332.242188 340.050781 -332.929688 340.96875 -333.390625 L 343.71875 -334.765625 C 344.175781 -334.765625 344.640625 -334.992188 345.109375 -335.453125 L 348.546875 -335.453125 C 349.460938 -335.453125 350.378906 -335.222656 351.296875 -334.765625 Z M 50.96875 -166.703125 C 50.96875 -127.203125 64.972656 -93.675781 92.984375 -66.125 C 120.546875 -38.570312 154.070312 -24.796875 193.5625 -24.796875 C 233.050781 -24.796875 266.570312 -38.570312 294.125 -66.125 C 321.675781 -93.675781 335.453125 -127.203125 335.453125 -166.703125 C 335.453125 -206.191406 321.675781 -239.710938 294.125 -267.265625 C 266.570312 -295.273438 233.050781 -309.28125 193.5625 -309.28125 C 154.070312 -309.28125 120.546875 -295.273438 92.984375 -267.265625 C 64.972656 -239.710938 50.96875 -206.191406 50.96875 -166.703125 Z M 50.96875 -166.703125 "/></g></g></g><g fill="#fffefa" fill-opacity="1"><g transform="translate(537.440964, 590.013069)"><g><path d="M 44.078125 -517.3125 C 45.003906 -516.851562 45.695312 -516.394531 46.15625 -515.9375 C 47.070312 -515.476562 47.757812 -514.785156 48.21875 -513.859375 C 49.132812 -513.398438 49.820312 -512.710938 50.28125 -511.796875 C 50.738281 -510.878906 50.96875 -509.960938 50.96875 -509.046875 C 51.425781 -508.585938 51.65625 -508.128906 51.65625 -507.671875 L 51.65625 -251.421875 C 65.894531 -275.296875 85.644531 -294.8125 110.90625 -309.96875 C 135.695312 -324.664062 163.25 -332.015625 193.5625 -332.015625 C 222.945312 -332.015625 250.039062 -324.894531 274.84375 -310.65625 C 299.632812 -296.425781 319.378906 -277.597656 334.078125 -254.171875 C 341.890625 -241.316406 348.09375 -227.539062 352.6875 -212.84375 C 356.8125 -198.15625 358.875 -182.773438 358.875 -166.703125 C 358.875 -137.304688 351.757812 -110.210938 337.53125 -85.421875 C 323.289062 -60.617188 304.234375 -40.867188 280.359375 -26.171875 C 267.953125 -18.367188 254.40625 -12.398438 239.71875 -8.265625 C 225.019531 -3.671875 209.632812 -1.375 193.5625 -1.375 C 163.25 -1.375 135.695312 -8.953125 110.90625 -24.109375 C 85.644531 -38.804688 65.894531 -58.320312 51.65625 -82.65625 L 51.65625 -8.265625 C 51.195312 -7.347656 50.738281 -6.660156 50.28125 -6.203125 L 48.90625 -3.4375 L 46.15625 -2.0625 C 45.695312 -1.144531 45.003906 -0.6875 44.078125 -0.6875 C 42.703125 -0.226562 41.554688 0 40.640625 0 L 37.890625 0 L 35.125 -1.375 C 34.207031 -1.375 33.519531 -1.832031 33.0625 -2.75 C 32.144531 -3.207031 31.457031 -3.898438 31 -4.828125 L 29.625 -7.578125 C 29.164062 -8.492188 28.9375 -9.410156 28.9375 -10.328125 L 28.9375 -13.09375 C 28.9375 -46.613281 28.703125 -96.664062 28.234375 -163.25 L 28.234375 -508.359375 C 28.703125 -509.734375 29.164062 -510.648438 29.625 -511.109375 C 29.625 -512.023438 30.082031 -512.941406 31 -513.859375 C 31.457031 -514.785156 32.144531 -515.476562 33.0625 -515.9375 C 33.976562 -516.394531 34.664062 -516.851562 35.125 -517.3125 C 35.582031 -517.3125 36.046875 -517.539062 36.515625 -518 L 41.328125 -518 C 42.242188 -518 43.160156 -517.769531 44.078125 -517.3125 Z M 51.65625 -171.515625 L 51.65625 -161.875 C 53.039062 -123.757812 67.28125 -91.382812 94.375 -64.75 C 121.925781 -38.113281 154.988281 -24.796875 193.5625 -24.796875 C 233.050781 -24.796875 266.570312 -38.570312 294.125 -66.125 C 322.132812 -93.675781 336.140625 -127.203125 336.140625 -166.703125 C 336.140625 -206.191406 322.132812 -239.710938 294.125 -267.265625 C 266.570312 -295.273438 233.050781 -309.28125 193.5625 -309.28125 C 154.988281 -309.28125 121.925781 -295.960938 94.375 -269.328125 C 67.28125 -242.691406 53.039062 -210.085938 51.65625 -171.515625 Z M 51.65625 -171.515625 "/></g></g></g><g fill="#fffefa" fill-opacity="1"><g transform="translate(907.045682, 590.013069)"><g><path d="M 314.109375 -253.484375 C 316.398438 -248.429688 315.019531 -243.84375 309.96875 -239.71875 C 304.914062 -236.039062 299.632812 -236.5 294.125 -241.09375 C 281.726562 -261.289062 264.96875 -277.363281 243.84375 -289.3125 C 222.71875 -301.707031 199.523438 -307.90625 174.265625 -307.90625 C 150.390625 -307.90625 128.578125 -302.625 108.828125 -292.0625 C 89.085938 -281.039062 72.554688 -266.804688 59.234375 -249.359375 C 112.960938 -217.210938 193.785156 -169.222656 301.703125 -105.390625 L 307.90625 -101.25 C 312.039062 -98.957031 316.863281 -95.972656 322.375 -92.296875 C 309.050781 -65.203125 289.070312 -42.929688 262.4375 -25.484375 C 235.800781 -8.492188 206.410156 0 174.265625 0 C 144.878906 0 117.785156 -7.117188 92.984375 -21.359375 C 68.648438 -35.128906 49.132812 -53.492188 34.4375 -76.453125 C 32.601562 -84.722656 34.441406 -89.773438 39.953125 -91.609375 C 45.921875 -93.453125 50.515625 -92.765625 53.734375 -89.546875 C 66.585938 -69.335938 83.578125 -53.265625 104.703125 -41.328125 C 125.828125 -29.390625 149.015625 -23.421875 174.265625 -23.421875 C 198.609375 -23.421875 220.882812 -28.929688 241.09375 -39.953125 C 261.757812 -50.972656 278.519531 -65.894531 291.375 -84.71875 C 237.1875 -116.863281 155.675781 -165.082031 46.84375 -229.375 C 45.925781 -230.289062 44.773438 -230.984375 43.390625 -231.453125 C 42.015625 -232.367188 40.867188 -233.285156 39.953125 -234.203125 C 39.035156 -234.660156 38.347656 -234.890625 37.890625 -234.890625 L 37.203125 -235.578125 C 35.359375 -236.492188 33.75 -237.640625 32.375 -239.015625 C 31 -239.941406 29.617188 -241.320312 28.234375 -243.15625 C 42.015625 -269.332031 61.992188 -290.457031 88.171875 -306.53125 C 113.890625 -322.601562 142.585938 -330.640625 174.265625 -330.640625 C 203.660156 -330.640625 230.523438 -323.519531 254.859375 -309.28125 C 279.660156 -295.507812 299.410156 -276.910156 314.109375 -253.484375 Z M 314.109375 -253.484375 "/></g></g></g></g></g><g clip-path="url(#111f62a147)"><g transform="matrix(1, 0, 0, 1, 1010, 856)"><g clip-path="url(#dcdeab49a6)"><g clip-path="url(#d128ee98ab)"><path fill="#15151f" d="M 0.574219 0.769531 L 450.574219 0.769531 L 450.574219 450.769531 L 0.574219 450.769531 Z M 0.574219 0.769531 " fill-opacity="1" fill-rule="nonzero"/></g></g></g></g><g transform="matrix(1, 0, 0, 1, 1104, 853)"><g clip-path="url(#b9bca3689c)"><g fill="#fffefa" fill-opacity="1"><g transform="translate(6.767108, 81.642391)"><g><path d="M 20.65625 1.359375 C 16.351562 1.359375 12.710938 0.253906 9.734375 -1.953125 C 6.753906 -4.160156 4.4375 -7.21875 2.78125 -11.125 L 7.59375 -13.375 C 10.144531 -6.863281 14.625 -3.609375 21.03125 -3.609375 C 23.6875 -3.609375 25.953125 -4.144531 27.828125 -5.21875 C 29.710938 -6.300781 31.117188 -7.71875 32.046875 -9.46875 C 32.972656 -11.21875 33.4375 -13.09375 33.4375 -15.09375 C 33.4375 -17.601562 32.820312 -19.769531 31.59375 -21.59375 C 30.363281 -23.425781 28.570312 -24.816406 26.21875 -25.765625 C 23.863281 -26.710938 21.007812 -27.1875 17.65625 -27.1875 L 17.65625 -32.15625 C 21.8125 -32.40625 24.925781 -33.378906 27 -35.078125 C 29.082031 -36.785156 30.125 -39.015625 30.125 -41.765625 C 30.125 -43.316406 29.734375 -44.742188 28.953125 -46.046875 C 28.179688 -47.347656 27.066406 -48.382812 25.609375 -49.15625 C 24.160156 -49.9375 22.484375 -50.328125 20.578125 -50.328125 C 17.972656 -50.328125 15.71875 -49.578125 13.8125 -48.078125 C 11.914062 -46.578125 10.367188 -44.425781 9.171875 -41.625 L 4.28125 -43.640625 C 5.832031 -47.347656 8.070312 -50.21875 11 -52.25 C 13.9375 -54.28125 17.179688 -55.296875 20.734375 -55.296875 C 23.734375 -55.296875 26.375 -54.679688 28.65625 -53.453125 C 30.9375 -52.222656 32.691406 -50.582031 33.921875 -48.53125 C 35.148438 -46.476562 35.765625 -44.222656 35.765625 -41.765625 C 35.765625 -39.109375 35.070312 -36.78125 33.6875 -34.78125 C 32.3125 -32.78125 30.375 -31.253906 27.875 -30.203125 C 31.425781 -28.898438 34.113281 -27.019531 35.9375 -24.5625 C 37.769531 -22.113281 38.6875 -19.082031 38.6875 -15.46875 C 38.6875 -12.570312 38 -9.832031 36.625 -7.25 C 35.25 -4.664062 33.195312 -2.582031 30.46875 -1 C 27.738281 0.570312 24.46875 1.359375 20.65625 1.359375 Z M 20.65625 1.359375 "/></g></g></g><g fill="#fffefa" fill-opacity="1"><g transform="translate(108.490698, 81.642391)"><g><path d="M 22.609375 -31.546875 C 25.566406 -31.546875 28.242188 -30.832031 30.640625 -29.40625 C 33.046875 -27.976562 34.925781 -26.015625 36.28125 -23.515625 C 37.632812 -21.015625 38.3125 -18.207031 38.3125 -15.09375 C 38.3125 -12.039062 37.582031 -9.257812 36.125 -6.75 C 34.675781 -4.25 32.675781 -2.269531 30.125 -0.8125 C 27.570312 0.632812 24.691406 1.359375 21.484375 1.359375 C 18.273438 1.359375 15.429688 0.644531 12.953125 -0.78125 C 10.472656 -2.21875 8.546875 -4.1875 7.171875 -6.6875 C 5.796875 -9.1875 5.109375 -11.988281 5.109375 -15.09375 C 5.109375 -17.601562 5.609375 -20.097656 6.609375 -22.578125 C 7.609375 -25.054688 9.132812 -27.820312 11.1875 -30.875 L 27.640625 -55.296875 L 32 -52.4375 L 17.5 -30.71875 C 19.007812 -31.269531 20.710938 -31.546875 22.609375 -31.546875 Z M 21.71875 -3.90625 C 23.8125 -3.90625 25.722656 -4.367188 27.453125 -5.296875 C 29.179688 -6.222656 30.546875 -7.523438 31.546875 -9.203125 C 32.554688 -10.878906 33.0625 -12.84375 33.0625 -15.09375 C 33.0625 -17.40625 32.597656 -19.421875 31.671875 -21.140625 C 30.742188 -22.867188 29.425781 -24.207031 27.71875 -25.15625 C 26.019531 -26.113281 24.019531 -26.59375 21.71875 -26.59375 C 19.5625 -26.59375 17.617188 -26.078125 15.890625 -25.046875 C 14.160156 -24.023438 12.804688 -22.625 11.828125 -20.84375 C 10.859375 -19.070312 10.375 -17.15625 10.375 -15.09375 C 10.375 -12.84375 10.875 -10.863281 11.875 -9.15625 C 12.875 -7.457031 14.238281 -6.15625 15.96875 -5.25 C 17.695312 -4.351562 19.613281 -3.90625 21.71875 -3.90625 Z M 21.71875 -3.90625 "/></g></g></g><g fill="#fffefa" fill-opacity="1"><g transform="translate(210.214289, 81.642391)"><g><path d="M 20.734375 1.359375 C 14.472656 1.359375 9.835938 -1.03125 6.828125 -5.8125 C 3.828125 -10.601562 2.328125 -17.679688 2.328125 -27.046875 C 2.328125 -32.898438 3.023438 -37.941406 4.421875 -42.171875 C 5.828125 -46.410156 7.90625 -49.65625 10.65625 -51.90625 C 13.414062 -54.164062 16.773438 -55.296875 20.734375 -55.296875 C 24.535156 -55.296875 27.8125 -54.226562 30.5625 -52.09375 C 33.320312 -49.96875 35.453125 -46.785156 36.953125 -42.546875 C 38.460938 -38.316406 39.21875 -33.148438 39.21875 -27.046875 C 39.21875 -20.984375 38.460938 -15.820312 36.953125 -11.5625 C 35.453125 -7.3125 33.320312 -4.09375 30.5625 -1.90625 C 27.8125 0.269531 24.535156 1.359375 20.734375 1.359375 Z M 20.734375 -3.609375 C 23.390625 -3.609375 25.707031 -4.472656 27.6875 -6.203125 C 29.664062 -7.929688 31.203125 -10.546875 32.296875 -14.046875 C 33.398438 -17.554688 33.953125 -21.890625 33.953125 -27.046875 C 33.953125 -32.148438 33.398438 -36.441406 32.296875 -39.921875 C 31.203125 -43.410156 29.664062 -46.015625 27.6875 -47.734375 C 25.707031 -49.460938 23.390625 -50.328125 20.734375 -50.328125 C 16.328125 -50.328125 13.035156 -48.222656 10.859375 -44.015625 C 8.679688 -39.816406 7.59375 -34.160156 7.59375 -27.046875 C 7.59375 -19.734375 8.65625 -14 10.78125 -9.84375 C 12.90625 -5.6875 16.222656 -3.609375 20.734375 -3.609375 Z M 20.734375 -3.609375 "/></g></g></g></g></g></g><rect x="80.8" y="362" width="1341.7" height="646" rx="84" fill="none" stroke="rgba(255,255,255,0.10)" stroke-width="2"/></svg>
